# xmcd CD database file
#
# Track frame offsets:
#	150
#	20437
#	36185
#	56457
#
# Disc length: 962 seconds
#
# Revision: 0
# Processed by: cddbd v1.5PL3 Copyright (c) Steve Scherf et al.
# Submitted via: CDex 1.51
#
DISCID=2903c004
DTITLE=坪倉唯子 - 青のレクイエム
DYEAR=2002
DGENRE=Anime
TTITLE0=青のレクイエム
TTITLE1=LOVE DEEPER
TTITLE2=青のレクイエム （Instrumental)
TTITLE3=LOVE DEEPER （Instrumental)
EXTD=YEAR: 2002
EXTT0=
EXTT1=
EXTT2=
EXTT3=
PLAYORDER=
